<svg xmlns="http://www.w3.org/2000/svg" width="40" height="26" viewBox="0 0 40 26">
  <defs>
    <style>
      .cls-1 {
        fill: #fff;
        fill-rule: evenodd;
      }
    </style>
  </defs>
  <path id="Фигура_8" data-name="Фигура 8" class="cls-1" d="M383.952,3164.3l-0.343,2.46c-0.119.82-.249,1.61-0.379,2.42l-0.083.48c-0.391,2.31-.735,4.19-1.1,5.91-0.4,1.93-.866,3.99-1.5,6.1-0.356,1.19-.711,2.17-1.091,3.1a16.725,16.725,0,0,1-.746,1.56,8.077,8.077,0,0,1-1.09,1.56,4.09,4.09,0,0,1-.806.68,2.709,2.709,0,0,1-1.079.4,2.28,2.28,0,0,1-1.149-.13,3.81,3.81,0,0,1-.936-0.53,7.029,7.029,0,0,1-1.28-1.43,16.918,16.918,0,0,1-.9-1.49,31.669,31.669,0,0,1-1.374-3c-0.427-1.05-.83-2.11-1.162-3-0.213-.59-0.426-1.17-0.64-1.76-0.521-1.42-1.019-2.77-1.54-4.08-0.439-1.1-.841-1.92-1.185-2.63-0.048-.1-0.107-0.19-0.154-0.29-0.024-.03-0.036-0.06-0.059-0.09s-0.048-.07-0.071-0.11c-0.884-1.35-1.961-1.2-2.773.93-0.166.42-.344,0.83-0.51,1.29L361.52,3174c-0.367,1.11-.735,2.07-1.1,2.96a19.428,19.428,0,0,1-1.41,2.79,9.42,9.42,0,0,1-2.039,2.43,4.734,4.734,0,0,1-1.41.78,3.275,3.275,0,0,1-1.552.12,3.911,3.911,0,0,1-1.4-.54,6.376,6.376,0,0,1-1.15-.89,11.647,11.647,0,0,1-1.73-2.17,23.969,23.969,0,0,1-1.3-2.32,45.636,45.636,0,0,1-1.943-4.63c-1.1-3.06-1.872-5.86-2.417-8.03-0.024-.08-0.036-0.16-0.06-0.24a0.328,0.328,0,0,1,.1-0.28,0.338,0.338,0,0,1,.273-0.1,0.5,0.5,0,0,1,.13.02,0.4,0.4,0,0,1,.225.25c0.77,2.09,1.635,4.55,2.963,7.41,0.711,1.53,1.434,2.92,2.156,4.17a23.2,23.2,0,0,0,1.3,1.95,9.572,9.572,0,0,0,1.481,1.61,2.79,2.79,0,0,0,1.636.75,2.035,2.035,0,0,0,1.41-.61,7.339,7.339,0,0,0,1.291-1.77,19.273,19.273,0,0,0,1.079-2.38c0.308-.8.6-1.68,0.9-2.68l0.486-1.53c0.178-.5.368-1.02,0.581-1.53,0.244-.58.469-1.1,0.713-1.56h0c0-.01.006-0.01,0.008-0.02a0.061,0.061,0,0,0,.007-0.01h0a8.694,8.694,0,0,1,1.015-1.52,4.809,4.809,0,0,1,.782-0.73,3.028,3.028,0,0,1,1.055-.49,2.385,2.385,0,0,1,1.185.05,3.559,3.559,0,0,1,.983.51,6.414,6.414,0,0,1,1.316,1.43,16.484,16.484,0,0,1,.9,1.5c0.557,1.08,1.008,2.12,1.375,3.02,0.059,0.14.118,0.28,0.178,0.42,0.569,1.42,1.078,2.84,1.576,4.22l0.486,1.33a53.141,53.141,0,0,0,2.263,5.54c0.237,0.45.45,0.81,0.64,1.11,1.078,1.7,1.789.19,2-.16a9.621,9.621,0,0,0,.592-1.15,25,25,0,0,0,1.019-2.66c0.569-1.73,1.126-3.65,1.624-5.68,0.474-1.89.912-3.81,1.327-5.7l0.083-.41c0.178-.79.355-1.6,0.5-2.37l0.462-2.29,0.047-.22a0.94,0.94,0,0,1,1.849.24v0.02Z" transform="translate(-344 -3163)"/>
</svg>
