<svg xmlns="http://www.w3.org/2000/svg" width="32" height="37" viewBox="0 0 32 37">
  <defs>
    <style>
      .cls-1 {
        fill: #fff;
        fill-rule: evenodd;
      }
    </style>
  </defs>
  <path class="cls-1" d="M379.451,3274.46l-0.613.01v9.44h0.608a1.57,1.57,0,0,0,1.554-1.58v-6.28A1.57,1.57,0,0,0,379.451,3274.46Zm-28.815,0a1.655,1.655,0,0,0-1.636,1.67v6.11a1.658,1.658,0,0,0,1.64,1.67h0.609v-9.44Zm26.789,11.1v-9.76h0a11.077,11.077,0,0,0-.2-2.1c-0.044-.23-0.095-0.46-0.153-0.68v-1.76a12.03,12.03,0,1,0-24.055,0v1.18c-0.055.17-.107,0.35-0.154,0.53a11.021,11.021,0,0,0-.368,2.83v11.57a0.818,0.818,0,0,0,.807.83h2.493a9.414,9.414,0,0,0,17.678,2.63,5.31,5.31,0,0,0,4.9-5.27h-0.949Zm-5.287.78a7.221,7.221,0,0,1-.287,2.03h-5.914a1.235,1.235,0,0,0,0,2.47h4.645a6.985,6.985,0,0,1-5.493,2.69,7.125,7.125,0,0,1-7.05-7.19v-7.85a14.579,14.579,0,0,0,3.643-3.23,17.664,17.664,0,0,0,10.456,3.75v7.33h0Zm-5.363-21.4h-3.631a10.464,10.464,0,0,0-7.028,2.71,9.543,9.543,0,0,1,17.945.23A10.523,10.523,0,0,0,366.775,3264.94Zm-4.195,15.87h-1.937a1.235,1.235,0,0,0,0,2.47h1.937A1.235,1.235,0,0,0,362.58,3280.81Zm6.777,0H367.42a1.235,1.235,0,0,0,0,2.47h1.937A1.235,1.235,0,0,0,369.357,3280.81Z" transform="translate(-349 -3259)"/>
</svg>
