<svg xmlns="http://www.w3.org/2000/svg" width="35.969" height="35.97" viewBox="0 0 35.969 35.97">
  <defs>
    <style>
      .cls-1 {
        fill: #fff;
        fill-rule: evenodd;
      }
    </style>
  </defs>
  <path id="Forma_1" data-name="Forma 1" class="cls-1" d="M382.886,3068a1.173,1.173,0,0,0-1.158-.88,3.977,3.977,0,0,1-2.72-6.92,1,1,0,0,0,.11-1.36,17.948,17.948,0,0,0-2.852-2.88,1,1,0,0,0-1.368.11,4.148,4.148,0,0,1-4.489,1.01,4,4,0,0,1-2.431-3.91,1,1,0,0,0-.883-1.05,18.281,18.281,0,0,0-4.05-.01,1.006,1.006,0,0,0-.891,1.03,4,4,0,0,1-2.465,3.84,4.173,4.173,0,0,1-4.455-1.01,1,1,0,0,0-1.359-.12,18.191,18.191,0,0,0-2.911,2.88,1,1,0,0,0,.107,1.37,3.985,3.985,0,0,1,1.006,4.49,4.157,4.157,0,0,1-3.916,2.43,0.982,0.982,0,0,0-1.04.89,17.987,17.987,0,0,0-.007,4.09,1.192,1.192,0,0,0,1.18.89,3.951,3.951,0,0,1,3.7,2.46,4,4,0,0,1-1.007,4.45,1,1,0,0,0-.109,1.36,18.246,18.246,0,0,0,2.847,2.88,1.007,1.007,0,0,0,1.37-.11,4.149,4.149,0,0,1,4.487-1.01,3.992,3.992,0,0,1,2.435,3.91,1,1,0,0,0,.883,1.05,17.963,17.963,0,0,0,2.074.12,18.693,18.693,0,0,0,1.976-.11,1,1,0,0,0,.891-1.03,4,4,0,0,1,2.463-3.84,4.157,4.157,0,0,1,4.457,1.02,1.014,1.014,0,0,0,1.359.11,18.024,18.024,0,0,0,2.911-2.88,1,1,0,0,0-.107-1.37,3.986,3.986,0,0,1-1.008-4.49,4.028,4.028,0,0,1,3.682-2.44l0.222,0.01a1.007,1.007,0,0,0,1.054-.88A18.017,18.017,0,0,0,382.886,3068ZM365,3080.38a10.38,10.38,0,1,1,8.909-5.06l-4.544-4.54a6.384,6.384,0,0,0,.5-2.49,6.346,6.346,0,0,0-8.039-6.13,0.707,0.707,0,0,0-.5.5,0.715,0.715,0,0,0,.2.69s2.243,2.26,2.993,3.01a0.454,0.454,0,0,1,.068.33l-0.007.05a14.377,14.377,0,0,1-.342,2.2c-0.016.01-.032,0.03-0.048,0.04a0.261,0.261,0,0,1-.05.05,13.917,13.917,0,0,1-2.23.35h-0.037a0.039,0.039,0,0,1-.036.01,0.491,0.491,0,0,1-.345-0.15c-0.781-.78-2.936-2.92-2.936-2.92a0.738,0.738,0,0,0-.524-0.23,0.71,0.71,0,0,0-.671.54,6.369,6.369,0,0,0,8.625,7.52l4.593,4.6A10.341,10.341,0,0,1,365,3080.38Z" transform="translate(-347.031 -3052.03)"/>
</svg>
