<svg xmlns="http://www.w3.org/2000/svg" width="32" height="29" viewBox="0 0 32 29">
  <defs>
    <style>
      .cls-1 {
        fill: #fff;
        fill-rule: evenodd;
      }
    </style>
  </defs>
  <path class="cls-1" d="M369.6,3394.54h-3.378v-2.96h-2.442v2.96H360.4a1.23,1.23,0,0,0,0,2.46h9.2A1.23,1.23,0,0,0,369.6,3394.54Zm-2.32-7.05H349v1.47a0.964,0.964,0,0,0,.963.97h30.074a0.964,0.964,0,0,0,.963-0.97v-1.47H367.279ZM380.037,3368H349.963a0.971,0.971,0,0,0-.963.97v16.88h2.252A13.82,13.82,0,0,1,365,3372.25a13.559,13.559,0,0,1,7.078,1.98l0.807-1.11a0.8,0.8,0,0,1,1.138-.18,0.828,0.828,0,0,1,.176,1.15l-0.778,1.07a13.906,13.906,0,0,1,5.327,10.69H381v-16.88A0.971,0.971,0,0,0,380.037,3368Zm-8.146,16.97a7.048,7.048,0,0,0-2.462-4.31L367,3384a3.166,3.166,0,0,1,.9,1.3h4.123A0.853,0.853,0,0,1,371.891,3384.97Zm-6.891-5.9a6.965,6.965,0,0,0-5.1,2.22c-0.006.01-.011,0.02-0.018,0.03a0.662,0.662,0,0,1-.143.15,7.091,7.091,0,0,0-1.632,3.5,0.851,0.851,0,0,1-.133.33H362.1a3.1,3.1,0,0,1,2.9-2.04,2.726,2.726,0,0,1,.5.04l2.556-3.52A6.969,6.969,0,0,0,365,3379.07Zm12.1,6.23a12.244,12.244,0,0,0-4.637-8.81l-2.075,2.86c0.072,0.05.143,0.11,0.213,0.17a8.71,8.71,0,0,1,2.9,5.18,0.825,0.825,0,0,1-.134.6H377.1Zm-20.594-.6a8.7,8.7,0,0,1,1.55-3.71l-2.83-2.07c0-.01-0.006-0.01-0.009-0.01a12.23,12.23,0,0,0-2.309,6.39h3.732A0.821,0.821,0,0,1,356.5,3384.7Zm-0.239-7.05,2.876,2.11q0.129-.12.264-0.24a8.564,8.564,0,0,1,4.783-2.05v-3.55A12.06,12.06,0,0,0,356.263,3377.65Zm9.551-3.73v3.55a8.6,8.6,0,0,1,3.209.97l2.089-2.88A11.989,11.989,0,0,0,365.814,3373.92Z" transform="translate(-349 -3368)"/>
</svg>
